<svg width="282" height="58" viewBox="0 0 282 58" fill="none" xmlns="http://www.w3.org/2000/svg">
<path d="M0.931818 50.6136V49.4545L6.04545 41.3636H6.88636V43.1591H6.31818L2.45455 49.2727V49.3636H9.34091V50.6136H0.931818ZM6.40909 53V50.2614V49.7216V41.3636H7.75V53H6.40909ZM11.9233 53.0909C11.643 53.0909 11.4025 52.9905 11.2017 52.7898C11.0009 52.589 10.9006 52.3485 10.9006 52.0682C10.9006 51.7879 11.0009 51.5473 11.2017 51.3466C11.4025 51.1458 11.643 51.0455 11.9233 51.0455C12.2036 51.0455 12.4441 51.1458 12.6449 51.3466C12.8456 51.5473 12.946 51.7879 12.946 52.0682C12.946 52.2538 12.8987 52.4242 12.804 52.5795C12.7131 52.7348 12.59 52.8598 12.4347 52.9545C12.2831 53.0455 12.1127 53.0909 11.9233 53.0909ZM18.6974 53.1591C17.9171 53.1591 17.2277 53.0208 16.6293 52.7443C16.0346 52.464 15.5705 52.0795 15.2372 51.5909C14.9039 51.0985 14.7391 50.5379 14.7429 49.9091C14.7391 49.4167 14.8357 48.9621 15.0327 48.5455C15.2296 48.125 15.4986 47.7746 15.8395 47.4943C16.1842 47.2102 16.5687 47.0303 16.9929 46.9545V46.8864C16.4361 46.7424 15.9929 46.4299 15.6634 45.9489C15.3338 45.464 15.1709 44.9129 15.1747 44.2955C15.1709 43.7045 15.3205 43.1761 15.6236 42.7102C15.9266 42.2443 16.3433 41.8769 16.8736 41.608C17.4077 41.339 18.0156 41.2045 18.6974 41.2045C19.3717 41.2045 19.974 41.339 20.5043 41.608C21.0346 41.8769 21.4512 42.2443 21.7543 42.7102C22.0611 43.1761 22.2164 43.7045 22.2202 44.2955C22.2164 44.9129 22.0478 45.464 21.7145 45.9489C21.3849 46.4299 20.9474 46.7424 20.402 46.8864V46.9545C20.8224 47.0303 21.2012 47.2102 21.5384 47.4943C21.8755 47.7746 22.1444 48.125 22.3452 48.5455C22.5459 48.9621 22.6482 49.4167 22.652 49.9091C22.6482 50.5379 22.4777 51.0985 22.1406 51.5909C21.8073 52.0795 21.3433 52.464 20.7486 52.7443C20.1577 53.0208 19.474 53.1591 18.6974 53.1591ZM18.6974 51.9091C19.224 51.9091 19.6785 51.8239 20.0611 51.6534C20.4437 51.483 20.7391 51.2424 20.9474 50.9318C21.1558 50.6212 21.2618 50.2576 21.2656 49.8409C21.2618 49.4015 21.1482 49.0133 20.9247 48.6761C20.7012 48.339 20.3963 48.0739 20.0099 47.8807C19.6274 47.6875 19.1899 47.5909 18.6974 47.5909C18.2012 47.5909 17.758 47.6875 17.3679 47.8807C16.9815 48.0739 16.6766 48.339 16.4531 48.6761C16.2334 49.0133 16.1255 49.4015 16.1293 49.8409C16.1255 50.2576 16.2259 50.6212 16.4304 50.9318C16.6387 51.2424 16.9361 51.483 17.3224 51.6534C17.7088 51.8239 18.1671 51.9091 18.6974 51.9091ZM18.6974 46.3864C19.1141 46.3864 19.4834 46.303 19.8054 46.1364C20.1312 45.9697 20.3868 45.7367 20.5724 45.4375C20.758 45.1383 20.8527 44.7879 20.8565 44.3864C20.8527 43.9924 20.7599 43.6496 20.5781 43.358C20.3963 43.0625 20.1444 42.8352 19.8224 42.6761C19.5005 42.5133 19.1255 42.4318 18.6974 42.4318C18.2618 42.4318 17.8812 42.5133 17.5554 42.6761C17.2296 42.8352 16.9777 43.0625 16.7997 43.358C16.6217 43.6496 16.5346 43.9924 16.5384 44.3864C16.5346 44.7879 16.6236 45.1383 16.8054 45.4375C16.991 45.7367 17.2467 45.9697 17.5724 46.1364C17.8982 46.303 18.2732 46.3864 18.6974 46.3864ZM32.8977 53.1818C32.1098 53.1818 31.4186 52.9943 30.8239 52.6193C30.233 52.2443 29.7708 51.7197 29.4375 51.0455C29.108 50.3712 28.9432 49.5833 28.9432 48.6818C28.9432 47.7727 29.108 46.9792 29.4375 46.3011C29.7708 45.6231 30.233 45.0966 30.8239 44.7216C31.4186 44.3466 32.1098 44.1591 32.8977 44.1591C33.6856 44.1591 34.375 44.3466 34.9659 44.7216C35.5606 45.0966 36.0227 45.6231 36.3523 46.3011C36.6856 46.9792 36.8523 47.7727 36.8523 48.6818C36.8523 49.5833 36.6856 50.3712 36.3523 51.0455C36.0227 51.7197 35.5606 52.2443 34.9659 52.6193C34.375 52.9943 33.6856 53.1818 32.8977 53.1818ZM32.8977 51.9773C33.4962 51.9773 33.9886 51.8239 34.375 51.517C34.7614 51.2102 35.0473 50.8068 35.233 50.3068C35.4186 49.8068 35.5114 49.2652 35.5114 48.6818C35.5114 48.0985 35.4186 47.5549 35.233 47.0511C35.0473 46.5473 34.7614 46.1402 34.375 45.8295C33.9886 45.5189 33.4962 45.3636 32.8977 45.3636C32.2992 45.3636 31.8068 45.5189 31.4205 45.8295C31.0341 46.1402 30.7481 46.5473 30.5625 47.0511C30.3769 47.5549 30.2841 48.0985 30.2841 48.6818C30.2841 49.2652 30.3769 49.8068 30.5625 50.3068C30.7481 50.8068 31.0341 51.2102 31.4205 51.517C31.8068 51.8239 32.2992 51.9773 32.8977 51.9773ZM44.3991 49.4318V44.2727H45.7401V53H44.3991V51.5227H44.3082C44.1037 51.9659 43.7855 52.3428 43.3537 52.6534C42.9219 52.9602 42.3764 53.1136 41.7173 53.1136C41.1719 53.1136 40.687 52.9943 40.2628 52.7557C39.8385 52.5133 39.5052 52.1496 39.2628 51.6648C39.0204 51.1761 38.8991 50.5606 38.8991 49.8182V44.2727H40.2401V49.7273C40.2401 50.3636 40.4181 50.8712 40.7741 51.25C41.134 51.6288 41.5923 51.8182 42.1491 51.8182C42.4825 51.8182 42.8215 51.733 43.1662 51.5625C43.5147 51.392 43.8063 51.1307 44.0412 50.7784C44.2798 50.4261 44.3991 49.9773 44.3991 49.4318ZM51.9915 44.2727V45.4091H47.4688V44.2727H51.9915ZM48.7869 42.1818H50.1278V50.5C50.1278 50.8788 50.1828 51.1629 50.2926 51.3523C50.4063 51.5379 50.5502 51.6629 50.7244 51.7273C50.9025 51.7879 51.09 51.8182 51.2869 51.8182C51.4347 51.8182 51.5559 51.8106 51.6506 51.7955C51.7453 51.7765 51.821 51.7614 51.8778 51.75L52.1506 52.9545C52.0597 52.9886 51.9328 53.0227 51.7699 53.0568C51.607 53.0947 51.4006 53.1136 51.1506 53.1136C50.7718 53.1136 50.4006 53.0322 50.0369 52.8693C49.6771 52.7064 49.3778 52.4583 49.1392 52.125C48.9044 51.7917 48.7869 51.3712 48.7869 50.8636V42.1818ZM62.054 53.1818C61.2661 53.1818 60.5748 52.9943 59.9801 52.6193C59.3892 52.2443 58.9271 51.7197 58.5938 51.0455C58.2642 50.3712 58.0994 49.5833 58.0994 48.6818C58.0994 47.7727 58.2642 46.9792 58.5938 46.3011C58.9271 45.6231 59.3892 45.0966 59.9801 44.7216C60.5748 44.3466 61.2661 44.1591 62.054 44.1591C62.8419 44.1591 63.5313 44.3466 64.1222 44.7216C64.7169 45.0966 65.179 45.6231 65.5085 46.3011C65.8419 46.9792 66.0085 47.7727 66.0085 48.6818C66.0085 49.5833 65.8419 50.3712 65.5085 51.0455C65.179 51.7197 64.7169 52.2443 64.1222 52.6193C63.5313 52.9943 62.8419 53.1818 62.054 53.1818ZM62.054 51.9773C62.6525 51.9773 63.1449 51.8239 63.5312 51.517C63.9176 51.2102 64.2036 50.8068 64.3892 50.3068C64.5748 49.8068 64.6676 49.2652 64.6676 48.6818C64.6676 48.0985 64.5748 47.5549 64.3892 47.0511C64.2036 46.5473 63.9176 46.1402 63.5312 45.8295C63.1449 45.5189 62.6525 45.3636 62.054 45.3636C61.4555 45.3636 60.9631 45.5189 60.5767 45.8295C60.1903 46.1402 59.9044 46.5473 59.7188 47.0511C59.5331 47.5549 59.4403 48.0985 59.4403 48.6818C59.4403 49.2652 59.5331 49.8068 59.7188 50.3068C59.9044 50.8068 60.1903 51.2102 60.5767 51.517C60.9631 51.8239 61.4555 51.9773 62.054 51.9773ZM71.9418 44.2727V45.4091H67.2372V44.2727H71.9418ZM68.6463 53V43.0682C68.6463 42.5682 68.7637 42.1515 68.9986 41.8182C69.2334 41.4848 69.5384 41.2348 69.9134 41.0682C70.2884 40.9015 70.6842 40.8182 71.1009 40.8182C71.4304 40.8182 71.6993 40.8447 71.9077 40.8977C72.116 40.9508 72.2713 41 72.3736 41.0455L71.9872 42.2045C71.919 42.1818 71.8243 42.1534 71.7031 42.1193C71.5857 42.0852 71.4304 42.0682 71.2372 42.0682C70.794 42.0682 70.474 42.1799 70.277 42.4034C70.0838 42.6269 69.9872 42.9545 69.9872 43.3864V53H68.6463ZM81.9347 53.1591C81.268 53.1591 80.6676 53.0265 80.1335 52.7614C79.5994 52.4962 79.1714 52.1326 78.8494 51.6705C78.5275 51.2083 78.3513 50.6818 78.321 50.0909H79.6847C79.7377 50.6174 79.9763 51.053 80.4006 51.3977C80.8286 51.7386 81.34 51.9091 81.9347 51.9091C82.4119 51.9091 82.8362 51.7973 83.2074 51.5739C83.5824 51.3504 83.8759 51.0436 84.0881 50.6534C84.304 50.2595 84.4119 49.8144 84.4119 49.3182C84.4119 48.8106 84.3002 48.358 84.0767 47.9602C83.857 47.5587 83.554 47.2424 83.1676 47.0114C82.7813 46.7803 82.34 46.6629 81.8438 46.6591C81.4877 46.6553 81.1222 46.7102 80.7472 46.8239C80.3722 46.9337 80.0634 47.0758 79.821 47.25L78.5028 47.0909L79.2074 41.3636H85.2528V42.6136H80.3892L79.9801 46.0455H80.0483C80.2869 45.8561 80.5862 45.6989 80.946 45.5739C81.3059 45.4489 81.6809 45.3864 82.071 45.3864C82.7831 45.3864 83.4176 45.5568 83.9744 45.8977C84.535 46.2348 84.9744 46.697 85.2926 47.2841C85.6146 47.8712 85.7756 48.5417 85.7756 49.2955C85.7756 50.0379 85.6089 50.7008 85.2756 51.2841C84.946 51.8636 84.4915 52.322 83.9119 52.6591C83.3324 52.9924 82.6733 53.1591 81.9347 53.1591Z" fill="#35B8BE"/>
<g clip-path="url(#clip0_2_1021)">
<path d="M28.9109 9.5678H40.0396V11.6391H35.6531V23.315H33.2515V11.6391H28.893L28.9109 9.5678ZM39.5621 13.3624H41.6157V15.2871H41.6526C41.7317 15.0031 41.8621 14.7359 42.0374 14.4987C42.2246 14.2313 42.4535 13.9958 42.7154 13.801C42.9773 13.5809 43.2751 13.4073 43.5956 13.2877C43.9036 13.1585 44.2337 13.0908 44.5676 13.0883C44.8239 13.0883 45.0073 13.1063 45.099 13.1063C45.1954 13.1275 45.2935 13.1399 45.3921 13.1431V15.2493C45.235 15.2144 45.0758 15.1897 44.9156 15.1755C44.7576 15.1541 44.5985 15.1418 44.439 15.1386C44.0791 15.1373 43.723 15.2124 43.3943 15.3589C43.0663 15.5118 42.7732 15.7303 42.5329 16.0008C42.2766 16.3182 42.0782 16.6782 41.9467 17.0644C41.7924 17.5375 41.718 18.033 41.7264 18.5306V23.2602H39.5262L39.5621 13.3624ZM55.475 23.316H53.3177V21.9205H53.2808C53.0002 22.4304 52.5805 22.85 52.0705 23.1306C51.5778 23.4278 51.014 23.5862 50.4386 23.5891C49.923 23.6391 49.4028 23.5782 48.9127 23.4106C48.4227 23.243 47.9742 22.9725 47.5973 22.6173C46.9497 21.7831 46.6359 20.7377 46.717 19.6848V13.3604H48.9172V19.4645C48.846 20.1244 49.0296 20.7866 49.4307 21.3155C49.6122 21.5037 49.8325 21.6504 50.0762 21.7454C50.3198 21.8404 50.5812 21.8814 50.8423 21.8657C51.239 21.8779 51.6334 21.8027 51.9978 21.6454C52.2901 21.5188 52.5479 21.324 52.7494 21.0773C52.9508 20.8242 53.0947 20.5303 53.1711 20.2161C53.2623 19.863 53.3055 19.4992 53.2997 19.1346V13.3604H55.5V23.314L55.475 23.316ZM59.2155 20.1264C59.2246 20.3938 59.2955 20.6555 59.4228 20.8909C59.5502 21.1263 59.7304 21.329 59.9492 21.4829C60.4112 21.749 60.9377 21.8821 61.4706 21.8677C61.7042 21.8656 61.9373 21.8473 62.1684 21.8129C62.4196 21.7822 62.6661 21.7206 62.9021 21.6295C63.1244 21.551 63.321 21.4131 63.4704 21.2308C63.6226 21.0394 63.6941 20.7963 63.6698 20.553C63.6668 20.4218 63.6376 20.2925 63.5841 20.1727C63.5305 20.0529 63.4535 19.945 63.3577 19.8553C63.1391 19.6692 62.8912 19.5206 62.624 19.4157C62.29 19.2955 61.9465 19.2035 61.5972 19.1406C61.2123 19.0668 60.8275 18.9761 60.4238 18.8844C60.02 18.7927 59.6173 18.6851 59.2275 18.5545C58.8575 18.4371 58.5102 18.2574 58.2006 18.0232C57.897 17.8049 57.6515 17.5153 57.4858 17.18C57.2904 16.7878 57.1958 16.353 57.2107 15.9151C57.1882 15.431 57.3286 14.9534 57.6095 14.5585C57.8729 14.1912 58.2179 13.8899 58.6173 13.6784C59.0417 13.4491 59.4996 13.2883 59.9742 13.202C60.4398 13.1162 60.9123 13.0731 61.3858 13.0734C61.8794 13.071 62.3716 13.1265 62.8523 13.2388C63.3034 13.3357 63.7324 13.5158 64.1174 13.7701C64.4989 14.0108 64.8191 14.3371 65.0525 14.723C65.3168 15.151 65.4798 15.6338 65.529 16.1344H63.2361C63.2093 15.9133 63.1306 15.7017 63.0064 15.5169C62.8821 15.332 62.7159 15.1792 62.5213 15.0709C62.1139 14.8813 61.6686 14.7872 61.2193 14.7958C61.0728 14.7958 60.8714 14.8137 60.669 14.8326C60.4631 14.8619 60.2604 14.911 60.0639 14.9792C59.8858 15.0502 59.7237 15.1563 59.5874 15.2911C59.5205 15.362 59.4684 15.4455 59.4342 15.5367C59.4 15.6279 59.3843 15.7251 59.388 15.8224C59.3827 15.9432 59.4047 16.0636 59.4523 16.1747C59.5 16.2858 59.572 16.3848 59.6631 16.4643C59.8819 16.6456 60.13 16.7882 60.3969 16.8859C60.7309 17.0061 61.0743 17.0981 61.4237 17.161C61.8085 17.2348 62.2123 17.3265 62.62 17.4172C63.0278 17.5079 63.4086 17.6166 63.7934 17.7471C64.165 17.8607 64.5129 18.0407 64.8202 18.2784C65.1202 18.4988 65.3702 18.78 65.554 19.1037C65.7475 19.4834 65.8421 19.9057 65.8291 20.3317C65.8482 20.8612 65.7094 21.3844 65.4304 21.8348C65.158 22.2414 64.8018 22.585 64.3856 22.8425C63.9399 23.1019 63.4581 23.2934 62.956 23.4107C62.4442 23.5249 61.9221 23.5863 61.3978 23.5941C60.81 23.5989 60.2242 23.5248 59.6561 23.3738C59.1571 23.2426 58.6848 23.0254 58.2604 22.7319C57.875 22.4476 57.5613 22.0773 57.3443 21.6504C57.107 21.1714 56.9816 20.6449 56.9774 20.1104H59.1996V20.1284L59.2155 20.1264ZM66.4572 13.3624H68.125V10.3562H70.3253V13.3465H72.3052V14.9781H70.3253V20.2938C70.3267 20.496 70.339 20.698 70.3622 20.8989C70.3801 21.0458 70.4237 21.1885 70.4908 21.3205C70.5681 21.434 70.6764 21.5229 70.8028 21.5766C70.991 21.6427 71.1896 21.6738 71.389 21.6684C71.5421 21.6715 71.6952 21.6655 71.8476 21.6504C72.0017 21.6348 72.1549 21.6102 72.3062 21.5766V23.2811C72.0679 23.318 71.8296 23.3359 71.5914 23.3549C71.3544 23.3859 71.1154 23.3982 70.8766 23.3917C70.4057 23.4063 69.9353 23.3505 69.4809 23.2263C69.1714 23.1362 68.8882 22.9728 68.6554 22.7498C68.4555 22.5266 68.318 22.2547 68.2566 21.9614C68.1816 21.6004 68.1385 21.2335 68.128 20.865V14.9991H66.4602V13.3674L66.4572 13.3624ZM73.8454 13.3624H75.917V14.719H75.9539C76.2289 14.1708 76.681 13.7314 77.237 13.4721C77.799 13.2118 78.4121 13.0803 79.0314 13.0873C79.7396 13.0649 80.4431 13.2093 81.0851 13.5089C81.6527 13.7651 82.1497 14.155 82.5336 14.6452C82.9313 15.1438 83.2243 15.7174 83.395 16.3317C83.7733 17.6352 83.7861 19.0175 83.4319 20.3277C83.2668 20.9247 83 21.4888 82.6433 21.9953C82.2917 22.4777 81.8339 22.8729 81.3054 23.1505C80.7166 23.4544 80.0608 23.6056 79.3983 23.5901C79.0786 23.5868 78.7597 23.5561 78.4452 23.4984C78.1301 23.4431 77.8225 23.3508 77.5291 23.2233C77.2376 23.097 76.9659 22.9291 76.7225 22.7249C76.4771 22.529 76.2664 22.2932 76.0995 22.0272H76.0626V26.995H73.8644V13.3624H73.8454ZM81.5267 18.3462C81.5302 17.9056 81.4683 17.4669 81.3433 17.0444C81.2379 16.6416 81.0577 16.2622 80.812 15.9261C80.5806 15.6082 80.2877 15.3401 79.9506 15.1376C79.5851 14.9352 79.1721 14.834 78.7543 14.8446C78.3538 14.8186 77.9531 14.892 77.5878 15.0582C77.2226 15.2245 76.9041 15.4784 76.6607 15.7975C76.1653 16.559 75.9212 17.4566 75.9629 18.3641C75.9543 18.8358 76.0162 19.3061 76.1463 19.7596C76.255 20.158 76.442 20.5308 76.6966 20.856C76.9323 21.1625 77.2329 21.413 77.5769 21.5896C77.9464 21.7799 78.3577 21.8745 78.7732 21.8647C79.2154 21.8773 79.6527 21.7695 80.0383 21.5527C80.375 21.3498 80.6679 21.0818 80.8997 20.7643C81.128 20.4251 81.2897 20.0456 81.3762 19.6459C81.4726 19.2199 81.5244 18.785 81.5307 18.3482L81.5267 18.3462ZM85.3948 9.5658H87.595V11.637H85.3948V9.5658ZM85.3948 13.3604H87.595V23.314H85.3948V13.3604ZM89.556 9.5658H91.7562V23.313H89.556V9.5658ZM98.4655 23.5881C97.7367 23.6046 97.0124 23.4688 96.3391 23.1894C95.7465 22.9377 95.2103 22.57 94.762 22.1079C94.3263 21.6251 93.9953 21.0574 93.79 20.4404C93.5588 19.7616 93.4412 19.0493 93.442 18.3322C93.4317 17.6193 93.5496 16.9103 93.79 16.2391C93.9996 15.624 94.33 15.057 94.762 14.5715C95.202 14.0997 95.7404 13.7305 96.3391 13.49C97.015 13.2193 97.7375 13.0838 98.4655 13.0913C99.1944 13.0748 99.9186 13.2106 100.592 13.49C101.188 13.7351 101.726 14.1037 102.169 14.5715C102.605 15.0543 102.936 15.6221 103.141 16.2391C103.373 16.9126 103.49 17.62 103.489 18.3322C103.5 19.0501 103.383 19.7642 103.141 20.4404C102.924 21.0521 102.595 21.6177 102.169 22.1079C101.729 22.5798 101.191 22.949 100.592 23.1894C99.9174 23.4623 99.1952 23.5985 98.4675 23.5901L98.4655 23.5881ZM98.4655 21.8468C98.9072 21.8548 99.3433 21.7472 99.7307 21.5348C100.082 21.3363 100.383 21.0606 100.611 20.7284C100.848 20.3893 101.022 20.0105 101.124 19.6101C101.344 18.7751 101.344 17.8973 101.124 17.0624C101.025 16.6606 100.851 16.2812 100.611 15.944C100.377 15.6213 100.077 15.3524 99.7307 15.1556C99.3425 14.9453 98.907 14.8379 98.4655 14.8436C98.0239 14.8357 97.5878 14.9432 97.2004 15.1556C96.8544 15.353 96.5543 15.6217 96.3202 15.944C96.0802 16.2812 95.906 16.6606 95.8067 17.0624C95.5867 17.8973 95.5867 18.7751 95.8067 19.6101C95.906 20.0118 96.0802 20.3912 96.3202 20.7284C96.5532 21.0565 96.8533 21.3313 97.2004 21.5348C97.5857 21.7545 98.0243 21.8631 98.4675 21.8488L98.4655 21.8468ZM104.148 13.3604H105.816V10.3542H108.016V13.3445H109.996V14.9762H108.019V20.2919C108.021 20.494 108.033 20.696 108.056 20.8969C108.074 21.0438 108.117 21.1865 108.185 21.3185C108.262 21.4321 108.37 21.521 108.497 21.5747C108.685 21.6407 108.883 21.6718 109.083 21.6664C109.236 21.6696 109.389 21.6636 109.541 21.6484C109.696 21.6328 109.849 21.6082 110 21.5747V23.2791C109.762 23.316 109.523 23.3339 109.285 23.3529C109.048 23.3839 108.809 23.3962 108.57 23.3897C108.1 23.4043 107.629 23.3485 107.175 23.2243C106.865 23.1342 106.582 22.9708 106.349 22.7478C106.149 22.5246 106.012 22.2527 105.95 21.9594C105.875 21.5984 105.832 21.2315 105.822 20.863V14.9971H104.151V13.3654L104.148 13.3604Z" fill="black"/>
<path d="M26.3448 9.56882H16.2798L13.1814 0L10.069 9.56882L0 9.55087L8.13992 15.4716L5.02352 25.0404L13.1634 19.1197L21.3033 25.0404L18.2049 15.4716L26.3448 9.56882Z" fill="#00B67A"/>
<path d="M18.9018 17.6335L18.2039 15.4706L13.1814 19.1187L18.9018 17.6335Z" fill="#005128"/>
</g>
<path d="M91.4091 53V41.3636H92.75V45.6591H92.8636C92.9621 45.5076 93.0985 45.3144 93.2727 45.0795C93.4508 44.8409 93.7045 44.6288 94.0341 44.4432C94.3674 44.2538 94.8182 44.1591 95.3864 44.1591C96.1212 44.1591 96.7689 44.3428 97.3295 44.7102C97.8902 45.0777 98.3277 45.5985 98.642 46.2727C98.9564 46.947 99.1136 47.7424 99.1136 48.6591C99.1136 49.5833 98.9564 50.3845 98.642 51.0625C98.3277 51.7367 97.892 52.2595 97.3352 52.6307C96.7784 52.9981 96.1364 53.1818 95.4091 53.1818C94.8485 53.1818 94.3996 53.089 94.0625 52.9034C93.7254 52.714 93.4659 52.5 93.2841 52.2614C93.1023 52.0189 92.9621 51.8182 92.8636 51.6591H92.7045V53H91.4091ZM92.7273 48.6364C92.7273 49.2955 92.8239 49.8769 93.017 50.3807C93.2102 50.8807 93.4924 51.2727 93.8636 51.5568C94.2348 51.8371 94.6894 51.9773 95.2273 51.9773C95.7879 51.9773 96.2557 51.8295 96.6307 51.5341C97.0095 51.2348 97.2936 50.8333 97.483 50.3295C97.6761 49.822 97.7727 49.2576 97.7727 48.6364C97.7727 48.0227 97.678 47.4697 97.4886 46.9773C97.303 46.4811 97.0208 46.089 96.642 45.8011C96.267 45.5095 95.7955 45.3636 95.2273 45.3636C94.6818 45.3636 94.2235 45.5019 93.8523 45.7784C93.4811 46.0511 93.2008 46.4337 93.0114 46.9261C92.822 47.4148 92.7273 47.9848 92.7273 48.6364ZM103.733 53.2045C103.18 53.2045 102.678 53.1004 102.227 52.892C101.777 52.6799 101.419 52.375 101.153 51.9773C100.888 51.5758 100.756 51.0909 100.756 50.5227C100.756 50.0227 100.854 49.6174 101.051 49.3068C101.248 48.9924 101.511 48.7462 101.841 48.5682C102.17 48.3902 102.534 48.2576 102.932 48.1705C103.333 48.0795 103.737 48.0076 104.142 47.9545C104.672 47.8864 105.102 47.8352 105.432 47.8011C105.765 47.7633 106.008 47.7008 106.159 47.6136C106.314 47.5265 106.392 47.375 106.392 47.1591V47.1136C106.392 46.553 106.239 46.1174 105.932 45.8068C105.629 45.4962 105.169 45.3409 104.551 45.3409C103.911 45.3409 103.409 45.4811 103.045 45.7614C102.682 46.0417 102.426 46.3409 102.278 46.6591L101.006 46.2045C101.233 45.6742 101.536 45.2614 101.915 44.9659C102.297 44.6667 102.714 44.4583 103.165 44.3409C103.619 44.2197 104.066 44.1591 104.506 44.1591C104.786 44.1591 105.108 44.1932 105.472 44.2614C105.839 44.3258 106.193 44.4602 106.534 44.6648C106.879 44.8693 107.165 45.178 107.392 45.5909C107.619 46.0038 107.733 46.5568 107.733 47.25V53H106.392V51.8182H106.324C106.233 52.0076 106.081 52.2102 105.869 52.4261C105.657 52.642 105.375 52.8258 105.023 52.9773C104.67 53.1288 104.241 53.2045 103.733 53.2045ZM103.938 52C104.468 52 104.915 51.8958 105.278 51.6875C105.646 51.4792 105.922 51.2102 106.108 50.8807C106.297 50.5511 106.392 50.2045 106.392 49.8409V48.6136C106.335 48.6818 106.21 48.7443 106.017 48.8011C105.828 48.8542 105.608 48.9015 105.358 48.9432C105.112 48.9811 104.871 49.0152 104.636 49.0455C104.405 49.072 104.218 49.0947 104.074 49.1136C103.725 49.1591 103.4 49.233 103.097 49.3352C102.797 49.4337 102.555 49.5833 102.369 49.7841C102.188 49.9811 102.097 50.25 102.097 50.5909C102.097 51.0568 102.269 51.4091 102.614 51.6477C102.962 51.8826 103.403 52 103.938 52ZM116.362 46.2273L115.158 46.5682C115.082 46.3674 114.97 46.1723 114.822 45.983C114.679 45.7898 114.482 45.6307 114.232 45.5057C113.982 45.3807 113.661 45.3182 113.271 45.3182C112.737 45.3182 112.292 45.4413 111.936 45.6875C111.584 45.9299 111.408 46.2386 111.408 46.6136C111.408 46.947 111.529 47.2102 111.771 47.4034C112.014 47.5966 112.393 47.7576 112.908 47.8864L114.203 48.2045C114.983 48.3939 115.565 48.6837 115.947 49.0739C116.33 49.4602 116.521 49.9583 116.521 50.5682C116.521 51.0682 116.377 51.5152 116.089 51.9091C115.805 52.303 115.408 52.6136 114.896 52.8409C114.385 53.0682 113.79 53.1818 113.112 53.1818C112.222 53.1818 111.485 52.9886 110.902 52.6023C110.319 52.2159 109.949 51.6515 109.794 50.9091L111.067 50.5909C111.188 51.0606 111.417 51.4129 111.754 51.6477C112.095 51.8826 112.54 52 113.089 52C113.714 52 114.211 51.8674 114.578 51.6023C114.949 51.3333 115.135 51.0114 115.135 50.6364C115.135 50.3333 115.029 50.0795 114.817 49.875C114.605 49.6667 114.279 49.5114 113.839 49.4091L112.385 49.0682C111.586 48.8788 110.999 48.5852 110.624 48.1875C110.252 47.786 110.067 47.2841 110.067 46.6818C110.067 46.1894 110.205 45.7538 110.482 45.375C110.762 44.9962 111.143 44.6989 111.624 44.483C112.108 44.267 112.658 44.1591 113.271 44.1591C114.135 44.1591 114.813 44.3485 115.305 44.7273C115.802 45.1061 116.154 45.6061 116.362 46.2273ZM122.199 53.1818C121.358 53.1818 120.633 52.9962 120.023 52.625C119.417 52.25 118.949 51.7273 118.619 51.0568C118.294 50.3826 118.131 49.5985 118.131 48.7045C118.131 47.8106 118.294 47.0227 118.619 46.3409C118.949 45.6553 119.407 45.1212 119.994 44.7386C120.585 44.3523 121.275 44.1591 122.062 44.1591C122.517 44.1591 122.966 44.2348 123.409 44.3864C123.852 44.5379 124.256 44.7841 124.619 45.125C124.983 45.4621 125.273 45.9091 125.489 46.4659C125.705 47.0227 125.812 47.7083 125.812 48.5227V49.0909H119.085V47.9318H124.449C124.449 47.4394 124.35 47 124.153 46.6136C123.96 46.2273 123.684 45.9223 123.324 45.6989C122.968 45.4754 122.547 45.3636 122.062 45.3636C121.528 45.3636 121.066 45.4962 120.676 45.7614C120.29 46.0227 119.992 46.3636 119.784 46.7841C119.576 47.2045 119.472 47.6553 119.472 48.1364V48.9091C119.472 49.5682 119.585 50.1269 119.812 50.5852C120.044 51.0398 120.364 51.3864 120.773 51.625C121.182 51.8598 121.657 51.9773 122.199 51.9773C122.551 51.9773 122.869 51.928 123.153 51.8295C123.441 51.7273 123.689 51.5758 123.898 51.375C124.106 51.1705 124.267 50.9167 124.381 50.6136L125.676 50.9773C125.54 51.4167 125.311 51.803 124.989 52.1364C124.667 52.4659 124.269 52.7235 123.795 52.9091C123.322 53.0909 122.79 53.1818 122.199 53.1818ZM131.148 53.1818C130.42 53.1818 129.778 52.9981 129.222 52.6307C128.665 52.2595 128.229 51.7367 127.915 51.0625C127.6 50.3845 127.443 49.5833 127.443 48.6591C127.443 47.7424 127.6 46.947 127.915 46.2727C128.229 45.5985 128.667 45.0777 129.227 44.7102C129.788 44.3428 130.436 44.1591 131.17 44.1591C131.739 44.1591 132.188 44.2538 132.517 44.4432C132.85 44.6288 133.104 44.8409 133.278 45.0795C133.456 45.3144 133.595 45.5076 133.693 45.6591H133.807V41.3636H135.148V53H133.852V51.6591H133.693C133.595 51.8182 133.455 52.0189 133.273 52.2614C133.091 52.5 132.831 52.714 132.494 52.9034C132.157 53.089 131.708 53.1818 131.148 53.1818ZM131.33 51.9773C131.867 51.9773 132.322 51.8371 132.693 51.5568C133.064 51.2727 133.347 50.8807 133.54 50.3807C133.733 49.8769 133.83 49.2955 133.83 48.6364C133.83 47.9848 133.735 47.4148 133.545 46.9261C133.356 46.4337 133.076 46.0511 132.705 45.7784C132.333 45.5019 131.875 45.3636 131.33 45.3636C130.761 45.3636 130.288 45.5095 129.909 45.8011C129.534 46.089 129.252 46.4811 129.062 46.9773C128.877 47.4697 128.784 48.0227 128.784 48.6364C128.784 49.2576 128.879 49.822 129.068 50.3295C129.261 50.8333 129.545 51.2348 129.92 51.5341C130.299 51.8295 130.769 51.9773 131.33 51.9773ZM145.835 53.1818C145.047 53.1818 144.356 52.9943 143.761 52.6193C143.17 52.2443 142.708 51.7197 142.375 51.0455C142.045 50.3712 141.881 49.5833 141.881 48.6818C141.881 47.7727 142.045 46.9792 142.375 46.3011C142.708 45.6231 143.17 45.0966 143.761 44.7216C144.356 44.3466 145.047 44.1591 145.835 44.1591C146.623 44.1591 147.313 44.3466 147.903 44.7216C148.498 45.0966 148.96 45.6231 149.29 46.3011C149.623 46.9792 149.79 47.7727 149.79 48.6818C149.79 49.5833 149.623 50.3712 149.29 51.0455C148.96 51.7197 148.498 52.2443 147.903 52.6193C147.313 52.9943 146.623 53.1818 145.835 53.1818ZM145.835 51.9773C146.434 51.9773 146.926 51.8239 147.312 51.517C147.699 51.2102 147.985 50.8068 148.17 50.3068C148.356 49.8068 148.449 49.2652 148.449 48.6818C148.449 48.0985 148.356 47.5549 148.17 47.0511C147.985 46.5473 147.699 46.1402 147.312 45.8295C146.926 45.5189 146.434 45.3636 145.835 45.3636C145.237 45.3636 144.744 45.5189 144.358 45.8295C143.972 46.1402 143.686 46.5473 143.5 47.0511C143.314 47.5549 143.222 48.0985 143.222 48.6818C143.222 49.2652 143.314 49.8068 143.5 50.3068C143.686 50.8068 143.972 51.2102 144.358 51.517C144.744 51.8239 145.237 51.9773 145.835 51.9773ZM153.178 47.75V53H151.837V44.2727H153.132V45.6364H153.246C153.45 45.1932 153.761 44.8371 154.178 44.5682C154.594 44.2955 155.132 44.1591 155.791 44.1591C156.382 44.1591 156.899 44.2803 157.342 44.5227C157.786 44.7614 158.13 45.125 158.376 45.6136C158.623 46.0985 158.746 46.7121 158.746 47.4545V53H157.405V47.5455C157.405 46.8598 157.227 46.3258 156.871 45.9432C156.515 45.5568 156.026 45.3636 155.405 45.3636C154.977 45.3636 154.594 45.4564 154.257 45.642C153.924 45.8277 153.661 46.0985 153.467 46.4545C153.274 46.8106 153.178 47.2424 153.178 47.75ZM165.673 53V51.9773L169.514 47.7727C169.965 47.2803 170.336 46.8523 170.628 46.4886C170.92 46.1212 171.135 45.7765 171.276 45.4545C171.42 45.1288 171.491 44.7879 171.491 44.4318C171.491 44.0227 171.393 43.6686 171.196 43.3693C171.003 43.0701 170.738 42.839 170.401 42.6761C170.063 42.5133 169.685 42.4318 169.264 42.4318C168.817 42.4318 168.427 42.5246 168.094 42.7102C167.764 42.892 167.509 43.1477 167.327 43.4773C167.149 43.8068 167.06 44.1932 167.06 44.6364H165.719C165.719 43.9545 165.876 43.3561 166.19 42.8409C166.505 42.3258 166.933 41.9242 167.474 41.6364C168.02 41.3485 168.632 41.2045 169.31 41.2045C169.991 41.2045 170.596 41.3485 171.122 41.6364C171.649 41.9242 172.062 42.3125 172.361 42.8011C172.66 43.2898 172.81 43.8333 172.81 44.4318C172.81 44.8598 172.732 45.2784 172.577 45.6875C172.425 46.0928 172.16 46.5455 171.781 47.0455C171.406 47.5417 170.885 48.1477 170.219 48.8636L167.605 51.6591V51.75H173.014V53H165.673ZM179.156 53.1591C178.3 53.1591 177.571 52.9261 176.969 52.4602C176.366 51.9905 175.906 51.3106 175.588 50.4205C175.27 49.5265 175.111 48.447 175.111 47.1818C175.111 45.9242 175.27 44.8504 175.588 43.9602C175.91 43.0663 176.372 42.3845 176.974 41.9148C177.58 41.4413 178.308 41.2045 179.156 41.2045C180.005 41.2045 180.73 41.4413 181.332 41.9148C181.938 42.3845 182.401 43.0663 182.719 43.9602C183.041 44.8504 183.202 45.9242 183.202 47.1818C183.202 48.447 183.043 49.5265 182.724 50.4205C182.406 51.3106 181.946 51.9905 181.344 52.4602C180.741 52.9261 180.012 53.1591 179.156 53.1591ZM179.156 51.9091C180.005 51.9091 180.664 51.5 181.134 50.6818C181.603 49.8636 181.838 48.697 181.838 47.1818C181.838 46.1742 181.73 45.3163 181.514 44.608C181.302 43.8996 180.995 43.3598 180.594 42.9886C180.196 42.6174 179.717 42.4318 179.156 42.4318C178.315 42.4318 177.658 42.8466 177.185 43.6761C176.711 44.5019 176.474 45.6705 176.474 47.1818C176.474 48.1894 176.58 49.0455 176.793 49.75C177.005 50.4545 177.31 50.9905 177.707 51.358C178.109 51.7254 178.592 51.9091 179.156 51.9091ZM189.156 53.1591C188.3 53.1591 187.571 52.9261 186.969 52.4602C186.366 51.9905 185.906 51.3106 185.588 50.4205C185.27 49.5265 185.111 48.447 185.111 47.1818C185.111 45.9242 185.27 44.8504 185.588 43.9602C185.91 43.0663 186.372 42.3845 186.974 41.9148C187.58 41.4413 188.308 41.2045 189.156 41.2045C190.005 41.2045 190.73 41.4413 191.332 41.9148C191.938 42.3845 192.401 43.0663 192.719 43.9602C193.041 44.8504 193.202 45.9242 193.202 47.1818C193.202 48.447 193.043 49.5265 192.724 50.4205C192.406 51.3106 191.946 51.9905 191.344 52.4602C190.741 52.9261 190.012 53.1591 189.156 53.1591ZM189.156 51.9091C190.005 51.9091 190.664 51.5 191.134 50.6818C191.603 49.8636 191.838 48.697 191.838 47.1818C191.838 46.1742 191.73 45.3163 191.514 44.608C191.302 43.8996 190.995 43.3598 190.594 42.9886C190.196 42.6174 189.717 42.4318 189.156 42.4318C188.315 42.4318 187.658 42.8466 187.185 43.6761C186.711 44.5019 186.474 45.6705 186.474 47.1818C186.474 48.1894 186.58 49.0455 186.793 49.75C187.005 50.4545 187.31 50.9905 187.707 51.358C188.109 51.7254 188.592 51.9091 189.156 51.9091ZM199.156 53.1591C198.3 53.1591 197.571 52.9261 196.969 52.4602C196.366 51.9905 195.906 51.3106 195.588 50.4205C195.27 49.5265 195.111 48.447 195.111 47.1818C195.111 45.9242 195.27 44.8504 195.588 43.9602C195.91 43.0663 196.372 42.3845 196.974 41.9148C197.58 41.4413 198.308 41.2045 199.156 41.2045C200.005 41.2045 200.73 41.4413 201.332 41.9148C201.938 42.3845 202.401 43.0663 202.719 43.9602C203.041 44.8504 203.202 45.9242 203.202 47.1818C203.202 48.447 203.043 49.5265 202.724 50.4205C202.406 51.3106 201.946 51.9905 201.344 52.4602C200.741 52.9261 200.012 53.1591 199.156 53.1591ZM199.156 51.9091C200.005 51.9091 200.664 51.5 201.134 50.6818C201.603 49.8636 201.838 48.697 201.838 47.1818C201.838 46.1742 201.73 45.3163 201.514 44.608C201.302 43.8996 200.995 43.3598 200.594 42.9886C200.196 42.6174 199.717 42.4318 199.156 42.4318C198.315 42.4318 197.658 42.8466 197.185 43.6761C196.711 44.5019 196.474 45.6705 196.474 47.1818C196.474 48.1894 196.58 49.0455 196.793 49.75C197.005 50.4545 197.31 50.9905 197.707 51.358C198.109 51.7254 198.592 51.9091 199.156 51.9091ZM208.793 50.9545V43.4545H210.065V50.9545H208.793ZM205.679 47.8409V46.5682H213.179V47.8409H205.679ZM220.43 53V44.2727H221.726V45.5909H221.817C221.976 45.1591 222.264 44.8087 222.68 44.5398C223.097 44.2708 223.567 44.1364 224.089 44.1364C224.188 44.1364 224.311 44.1383 224.459 44.142C224.607 44.1458 224.718 44.1515 224.794 44.1591V45.5227C224.749 45.5114 224.644 45.4943 224.482 45.4716C224.322 45.4451 224.154 45.4318 223.976 45.4318C223.552 45.4318 223.173 45.5208 222.839 45.6989C222.51 45.8731 222.249 46.1155 222.055 46.4261C221.866 46.733 221.771 47.0833 221.771 47.4773V53H220.43ZM229.777 53.1818C228.936 53.1818 228.211 52.9962 227.601 52.625C226.995 52.25 226.527 51.7273 226.197 51.0568C225.872 50.3826 225.709 49.5985 225.709 48.7045C225.709 47.8106 225.872 47.0227 226.197 46.3409C226.527 45.6553 226.985 45.1212 227.572 44.7386C228.163 44.3523 228.853 44.1591 229.641 44.1591C230.095 44.1591 230.544 44.2348 230.987 44.3864C231.43 44.5379 231.834 44.7841 232.197 45.125C232.561 45.4621 232.851 45.9091 233.067 46.4659C233.283 47.0227 233.391 47.7083 233.391 48.5227V49.0909H226.663V47.9318H232.027C232.027 47.4394 231.929 47 231.732 46.6136C231.538 46.2273 231.262 45.9223 230.902 45.6989C230.546 45.4754 230.125 45.3636 229.641 45.3636C229.107 45.3636 228.644 45.4962 228.254 45.7614C227.868 46.0227 227.571 46.3636 227.362 46.7841C227.154 47.2045 227.05 47.6553 227.05 48.1364V48.9091C227.05 49.5682 227.163 50.1269 227.391 50.5852C227.622 51.0398 227.942 51.3864 228.351 51.625C228.76 51.8598 229.235 51.9773 229.777 51.9773C230.129 51.9773 230.447 51.928 230.732 51.8295C231.019 51.7273 231.268 51.5758 231.476 51.375C231.684 51.1705 231.845 50.9167 231.959 50.6136L233.254 50.9773C233.118 51.4167 232.889 51.803 232.567 52.1364C232.245 52.4659 231.847 52.7235 231.374 52.9091C230.9 53.0909 230.368 53.1818 229.777 53.1818ZM242.301 44.2727L239.074 53H237.71L234.483 44.2727H235.938L238.347 51.2273H238.438L240.847 44.2727H242.301ZM244.071 53V44.2727H245.412V53H244.071ZM244.753 42.8182C244.491 42.8182 244.266 42.7292 244.077 42.5511C243.891 42.3731 243.798 42.1591 243.798 41.9091C243.798 41.6591 243.891 41.4451 244.077 41.267C244.266 41.089 244.491 41 244.753 41C245.014 41 245.238 41.089 245.423 41.267C245.613 41.4451 245.707 41.6591 245.707 41.9091C245.707 42.1591 245.613 42.3731 245.423 42.5511C245.238 42.7292 245.014 42.8182 244.753 42.8182ZM251.527 53.1818C250.686 53.1818 249.961 52.9962 249.351 52.625C248.745 52.25 248.277 51.7273 247.947 51.0568C247.622 50.3826 247.459 49.5985 247.459 48.7045C247.459 47.8106 247.622 47.0227 247.947 46.3409C248.277 45.6553 248.735 45.1212 249.322 44.7386C249.913 44.3523 250.603 44.1591 251.391 44.1591C251.845 44.1591 252.294 44.2348 252.737 44.3864C253.18 44.5379 253.584 44.7841 253.947 45.125C254.311 45.4621 254.601 45.9091 254.817 46.4659C255.033 47.0227 255.141 47.7083 255.141 48.5227V49.0909H248.413V47.9318H253.777C253.777 47.4394 253.679 47 253.482 46.6136C253.288 46.2273 253.012 45.9223 252.652 45.6989C252.296 45.4754 251.875 45.3636 251.391 45.3636C250.857 45.3636 250.394 45.4962 250.004 45.7614C249.618 46.0227 249.321 46.3636 249.112 46.7841C248.904 47.2045 248.8 47.6553 248.8 48.1364V48.9091C248.8 49.5682 248.913 50.1269 249.141 50.5852C249.372 51.0398 249.692 51.3864 250.101 51.625C250.51 51.8598 250.985 51.9773 251.527 51.9773C251.879 51.9773 252.197 51.928 252.482 51.8295C252.769 51.7273 253.018 51.5758 253.226 51.375C253.434 51.1705 253.595 50.9167 253.709 50.6136L255.004 50.9773C254.868 51.4167 254.639 51.803 254.317 52.1364C253.995 52.4659 253.597 52.7235 253.124 52.9091C252.65 53.0909 252.118 53.1818 251.527 53.1818ZM259.158 53L256.499 44.2727H257.908L259.794 50.9545H259.885L261.749 44.2727H263.18L265.021 50.9318H265.112L266.999 44.2727H268.408L265.749 53H264.43L262.521 46.2955H262.385L260.476 53H259.158ZM276.362 46.2273L275.158 46.5682C275.082 46.3674 274.97 46.1723 274.822 45.983C274.679 45.7898 274.482 45.6307 274.232 45.5057C273.982 45.3807 273.661 45.3182 273.271 45.3182C272.737 45.3182 272.292 45.4413 271.936 45.6875C271.584 45.9299 271.408 46.2386 271.408 46.6136C271.408 46.947 271.529 47.2102 271.771 47.4034C272.014 47.5966 272.393 47.7576 272.908 47.8864L274.203 48.2045C274.983 48.3939 275.565 48.6837 275.947 49.0739C276.33 49.4602 276.521 49.9583 276.521 50.5682C276.521 51.0682 276.377 51.5152 276.089 51.9091C275.805 52.303 275.408 52.6136 274.896 52.8409C274.385 53.0682 273.79 53.1818 273.112 53.1818C272.222 53.1818 271.485 52.9886 270.902 52.6023C270.319 52.2159 269.949 51.6515 269.794 50.9091L271.067 50.5909C271.188 51.0606 271.417 51.4129 271.754 51.6477C272.095 51.8826 272.54 52 273.089 52C273.714 52 274.211 51.8674 274.578 51.6023C274.949 51.3333 275.135 51.0114 275.135 50.6364C275.135 50.3333 275.029 50.0795 274.817 49.875C274.605 49.6667 274.279 49.5114 273.839 49.4091L272.385 49.0682C271.586 48.8788 270.999 48.5852 270.624 48.1875C270.252 47.786 270.067 47.2841 270.067 46.6818C270.067 46.1894 270.205 45.7538 270.482 45.375C270.762 44.9962 271.143 44.6989 271.624 44.483C272.108 44.267 272.658 44.1591 273.271 44.1591C274.135 44.1591 274.813 44.3485 275.305 44.7273C275.802 45.1061 276.154 45.6061 276.362 46.2273Z" fill="#08090A"/>
<defs>
<clipPath id="clip0_2_1021">
<rect width="110" height="27" fill="white"/>
</clipPath>
</defs>
</svg>
